<svg width="179" height="47" viewBox="0 0 179 47" fill="none" xmlns="http://www.w3.org/2000/svg">
<g clip-path="url(#clip0_408_266)">
<path d="M2.74428 46.3831H13.4107C13.6848 46.3831 13.9477 46.2756 14.1415 46.0841C14.3353 45.8927 14.4442 45.633 14.4442 45.3623V45.2638H12.7377C11.6897 45.2638 10.6845 44.8526 9.94346 44.1206C9.20238 43.3886 8.78605 42.3959 8.78605 41.3607V16.5637L12.7486 16.2839L9.25782 17.7749C9.25782 17.7749 14.0186 43.959 36.7236 46.8059C36.7694 46.8112 36.8159 46.8069 36.8599 46.7932C36.9039 46.7795 36.9445 46.7568 36.979 46.7265C37.0134 46.6962 37.041 46.659 37.0599 46.6175C37.0787 46.5759 37.0884 46.5308 37.0884 46.4852V6.99083C37.0892 5.89772 37.5291 4.84959 38.3116 4.07658C39.0941 3.30358 40.1552 2.86888 41.2619 2.86792H42.1793C42.1794 2.69659 42.1453 2.52693 42.079 2.36862C42.0127 2.21032 41.9154 2.06647 41.7928 1.94529C41.6702 1.82412 41.5246 1.72799 41.3643 1.66241C41.2041 1.59683 41.0323 1.56307 40.8589 1.56307H31.0484C30.8749 1.56299 30.7031 1.59669 30.5428 1.66223C30.3825 1.72778 30.2368 1.82389 30.1141 1.94507C29.9914 2.06626 29.8941 2.21013 29.8278 2.36848C29.7614 2.52682 29.7273 2.69654 29.7274 2.86792V2.961H31.4935C32.6005 2.96148 33.662 3.39597 34.4449 4.16903C35.2278 4.94209 35.668 5.99048 35.6688 7.08391V45.4518C35.6691 45.5046 35.6562 45.5566 35.6313 45.6033C35.6064 45.65 35.5703 45.69 35.5261 45.7196C35.4819 45.7493 35.431 45.7678 35.3778 45.7734C35.3247 45.7791 35.271 45.7717 35.2214 45.752C32.9167 44.8381 22.3773 39.9237 19.4415 25.5103C18.4038 19.5463 14.3469 10.6003 7.93128 5.66137C7.93128 5.66137 16.8 8.82951 20.9511 25.2305C21.8946 29.3306 25.4796 36.0392 28.5929 39.1155C28.5929 39.1155 25.4797 30.7285 25.4797 23.8326C25.4797 21.0373 23.9701 12.6504 19.3473 7.43159L18.0262 11.7184C18.0262 11.7184 18.3095 6.68639 18.2153 5.94059C18.2153 5.94059 15.7622 3.70439 13.7809 2.49262C13.7809 2.49262 13.1207 4.35412 13.0265 5.28847C13.0265 5.28847 12.4599 3.42697 12.7432 2.49262C12.7432 2.49262 8.02611 -0.0234056 0.572693 1.09529C0.572693 1.09529 7.27105 8.36114 7.27105 13.7685V41.4508C7.27105 42.4859 6.85471 43.4787 6.11364 44.2107C5.37256 44.9427 4.36744 45.3539 3.3194 45.3539H1.7126C1.71147 45.4885 1.73732 45.622 1.78864 45.7467C1.83996 45.8714 1.91575 45.9849 2.01163 46.0805C2.10752 46.1762 2.22162 46.2522 2.34736 46.3041C2.4731 46.356 2.60799 46.3829 2.74428 46.3831Z" fill="white"/>
<path d="M115.193 2.18555C116.083 2.18555 116.877 2.31125 117.577 2.56266C118.284 2.81921 118.931 3.21608 119.477 3.7288C120.147 4.35116 120.678 5.10432 121.036 5.94037C121.397 6.78538 121.581 7.69408 121.576 8.61132C121.581 9.5485 121.386 10.4762 121.005 11.3345C120.633 12.1791 120.08 12.9336 119.383 13.5455C118.218 14.5536 116.727 15.1165 115.178 15.1326C114.289 15.1422 113.409 14.9679 112.592 14.621C111.793 14.2717 111.082 13.7537 110.507 13.1035C109.962 12.4985 109.534 11.7987 109.247 11.0397C108.956 10.2686 108.809 9.45174 108.813 8.62874C108.808 7.73983 108.985 6.85917 109.335 6.04006C110.009 4.48643 111.279 3.25972 112.867 2.62811C113.606 2.33494 114.396 2.1847 115.193 2.18555ZM119.635 8.91457C119.635 7.23321 119.196 5.8521 118.319 4.77123C117.441 3.69036 116.334 3.15214 115 3.15654C113.718 3.15654 112.69 3.61911 111.914 4.54425C111.138 5.46939 110.75 6.70659 110.75 8.25584C110.75 9.97722 111.191 11.3908 112.072 12.4965C112.953 13.6021 114.055 14.1542 115.377 14.1526C116.654 14.1526 117.682 13.6772 118.463 12.7264C119.244 11.7757 119.635 10.505 119.635 8.91457Z" fill="white"/>
<path d="M122.937 2.4707C123.212 2.49432 123.48 2.51174 123.74 2.52295C124.001 2.53416 124.257 2.53997 124.508 2.54037C124.695 2.54037 124.915 2.53456 125.167 2.52295C125.419 2.51134 125.691 2.49392 125.984 2.4707C126.068 2.67754 126.174 2.87517 126.3 3.06038C126.456 3.29228 126.626 3.51523 126.809 3.72813L134.052 12.1949C134.035 11.3162 134.017 10.1513 133.999 8.70011C133.953 5.65366 133.9 4.01475 133.841 3.78337C133.771 3.51755 133.646 3.3326 133.468 3.22852C133.289 3.12404 132.999 3.07239 132.594 3.07239H132.323V2.47191C132.393 2.47191 132.498 2.47492 132.638 2.48092C133.469 2.52095 134.055 2.54097 134.395 2.54097C134.734 2.54097 135.337 2.52095 136.203 2.48092C136.325 2.47492 136.418 2.47191 136.484 2.47191L136.475 3.07239C136.44 3.06638 136.402 3.06218 136.361 3.05918C136.321 3.05618 136.265 3.05499 136.194 3.05499C135.41 3.05499 135.012 4.13325 135 6.28978C134.994 6.83302 134.992 7.25796 134.992 7.5646L134.956 9.87105C134.945 10.2121 134.937 10.5634 134.934 10.9249C134.932 11.2864 134.93 11.782 134.93 12.4117C134.93 13.1119 134.939 13.6569 134.956 14.0468C134.967 14.3619 134.996 14.6761 135.044 14.9878H134.071C133.972 14.7568 133.618 14.2942 133.009 13.6001L132.921 13.4962L125.388 4.74594V4.94531C125.423 10.3569 125.482 13.2192 125.564 13.5322C125.634 13.7976 125.758 13.9826 125.937 14.0871C126.115 14.1915 126.4 14.2436 126.793 14.2432H127.057V14.8503C126.968 14.8443 126.839 14.8385 126.67 14.8329C125.85 14.798 125.292 14.7806 124.993 14.7806C124.706 14.7806 124.389 14.7864 124.041 14.798C123.692 14.8096 123.325 14.8271 122.938 14.8503V14.2498C122.974 14.2498 123.013 14.2498 123.057 14.254C123.101 14.2582 123.158 14.2588 123.228 14.2588C124.013 14.2588 124.411 13.1863 124.422 11.0414C124.428 10.4982 124.431 10.0732 124.431 9.76657L124.475 7.45952C124.481 6.96232 124.485 6.47813 124.488 6.00696C124.491 5.53578 124.493 4.99675 124.493 4.38986C124.493 3.89266 124.396 3.54857 124.203 3.35762C124.01 3.16666 123.667 3.07139 123.176 3.07179H122.938L122.937 2.4707Z" fill="white"/>
<path d="M137.792 2.44727C138.419 2.48209 138.894 2.50671 139.219 2.52112C139.544 2.53554 139.806 2.54275 140.005 2.54275C140.385 2.54275 140.758 2.53554 141.124 2.52112C141.489 2.50671 141.854 2.48489 142.218 2.45567V3.06276H141.946C141.484 3.06276 141.171 3.22029 141.007 3.53535C140.842 3.8504 140.761 4.57378 140.763 5.70549V7.43007L140.79 13.7814C141.117 13.7986 141.429 13.8116 141.725 13.8204C142.02 13.8292 142.3 13.8336 142.564 13.8336C144.132 13.8336 145.143 13.6905 145.597 13.4043C146.05 13.118 146.412 12.5644 146.681 11.7433L147.313 11.9343C147.132 12.4315 146.971 12.9201 146.83 13.4001C146.689 13.8801 146.567 14.3629 146.462 14.8484C145.489 14.8196 144.595 14.7978 143.779 14.783C142.964 14.7682 142.199 14.761 141.483 14.7614C140.98 14.7614 140.418 14.7686 139.797 14.783C139.177 14.7974 138.445 14.8192 137.603 14.8484V14.2846C137.643 14.2906 137.683 14.2948 137.721 14.2978C137.76 14.3008 137.816 14.302 137.893 14.302C138.683 14.296 139.081 13.1839 139.087 10.9657C139.087 10.4629 139.089 10.07 139.095 9.78697L139.113 7.43007C139.113 7.17627 139.116 6.85 139.121 6.45128C139.127 6.05256 139.13 5.77515 139.13 5.61902C139.13 4.55617 139.044 3.86441 138.871 3.54375C138.699 3.22309 138.364 3.06296 137.866 3.06336H137.796L137.792 2.44727Z" fill="white"/>
<path d="M147.88 2.4707C148.29 2.49432 148.697 2.51174 149.101 2.52295C149.505 2.53416 149.9 2.53997 150.286 2.54037C150.614 2.54037 150.978 2.53456 151.38 2.52295C151.782 2.51134 152.209 2.49392 152.662 2.4707V3.06038H152.516C152.136 3.06038 151.851 3.10381 151.66 3.19068C151.567 3.23244 151.484 3.29249 151.415 3.36713C151.347 3.44178 151.294 3.52947 151.261 3.62484C151.201 3.83564 151.167 4.05276 151.16 4.27155C151.139 4.56939 151.129 5.05379 151.129 5.72473V11.774C151.129 12.4565 151.145 12.9369 151.178 13.2152C151.21 13.4934 151.261 13.6989 151.331 13.8319C151.375 13.908 151.434 13.9748 151.504 14.0284C151.574 14.082 151.654 14.1213 151.739 14.1441C151.936 14.2078 152.212 14.2396 152.569 14.2396H152.751V14.8467C152.248 14.8234 151.782 14.806 151.353 14.7944C150.924 14.7828 150.567 14.777 150.282 14.777C149.943 14.777 149.559 14.7828 149.132 14.7944C148.704 14.806 148.257 14.8234 147.789 14.8467V14.2396H147.965C148.329 14.2396 148.607 14.2078 148.799 14.1441C148.883 14.1208 148.963 14.0813 149.032 14.0277C149.101 13.9741 149.159 13.9076 149.202 13.8319C149.283 13.6753 149.341 13.4191 149.374 13.0632C149.407 12.7073 149.423 12.0638 149.422 11.1327V6.36785C149.422 5.45912 149.41 4.81259 149.387 4.42828C149.363 4.04397 149.325 3.77637 149.272 3.62545C149.243 3.53087 149.193 3.44343 149.128 3.36869C149.062 3.29394 148.981 3.23352 148.89 3.19128C148.706 3.10481 148.421 3.06138 148.034 3.06098H147.876L147.88 2.4707Z" fill="white"/>
<path d="M153.859 2.4707C154.134 2.49432 154.402 2.51174 154.662 2.52295C154.923 2.53416 155.179 2.53997 155.431 2.54037C155.618 2.54037 155.837 2.53456 156.089 2.52295C156.341 2.51134 156.613 2.49392 156.906 2.4707C156.99 2.67743 157.096 2.87503 157.222 3.06038C157.379 3.29214 157.549 3.51507 157.731 3.72813L164.974 12.1949C164.957 11.3162 164.939 10.1513 164.922 8.70011C164.875 5.65366 164.822 4.01475 164.764 3.78337C164.693 3.51755 164.569 3.3326 164.391 3.22852C164.212 3.12444 163.921 3.07239 163.517 3.07239H163.245V2.47191C163.315 2.47191 163.42 2.47492 163.561 2.48092C164.392 2.52095 164.977 2.54097 165.316 2.54097C165.656 2.54097 166.259 2.52095 167.125 2.48092C167.247 2.47492 167.342 2.47191 167.407 2.47191L167.397 3.07239C167.362 3.06638 167.325 3.06218 167.283 3.05918C167.242 3.05618 167.187 3.05499 167.117 3.05499C166.332 3.05499 165.934 4.13325 165.923 6.28978C165.917 6.83302 165.913 7.25796 165.913 7.5646L165.879 9.87105C165.867 10.2121 165.859 10.5634 165.857 10.9249C165.855 11.2864 165.853 11.782 165.852 12.4117C165.852 13.1119 165.861 13.6569 165.879 14.0468C165.889 14.3619 165.918 14.6761 165.966 14.9878H164.994C164.894 14.7568 164.54 14.2942 163.932 13.6001L163.843 13.4962L156.31 4.74594V4.94531C156.346 10.3569 156.404 13.2192 156.486 13.5322C156.557 13.7976 156.681 13.9826 156.859 14.0871C157.038 14.1915 157.323 14.2436 157.715 14.2432H157.979V14.8503C157.891 14.8443 157.762 14.8385 157.593 14.8329C156.773 14.798 156.214 14.7806 155.915 14.7806C155.629 14.7806 155.311 14.7864 154.963 14.798C154.614 14.8096 154.247 14.8271 153.861 14.8503V14.2498C153.896 14.2498 153.936 14.2498 153.983 14.254C154.029 14.2582 154.083 14.2588 154.154 14.2588C154.938 14.2588 155.336 13.1863 155.348 11.0414C155.353 10.4982 155.356 10.0732 155.357 9.76657L155.4 7.45952C155.406 6.96232 155.411 6.47813 155.414 6.00696C155.416 5.53578 155.418 4.99675 155.418 4.38986C155.418 3.89266 155.321 3.54857 155.129 3.35762C154.936 3.16666 154.593 3.07139 154.101 3.07179H153.864L153.859 2.4707Z" fill="white"/>
<path d="M168.714 2.4707C169.739 2.50553 170.655 2.53156 171.463 2.54877C172.271 2.56598 172.968 2.57479 173.552 2.57519C174.201 2.57519 174.858 2.56638 175.523 2.54877C176.189 2.53115 176.863 2.50513 177.547 2.4707C177.552 2.90425 177.57 3.34802 177.599 3.80198C177.629 4.25595 177.664 4.71132 177.705 5.16808L177.117 5.21972C177.07 4.52596 176.854 4.05638 176.467 3.81099C176.08 3.56559 175.246 3.4427 173.965 3.4423C173.637 3.4423 173.037 3.4509 172.165 3.46811C171.989 3.47412 171.86 3.47711 171.779 3.47711C171.767 4.17047 171.749 5.02017 171.726 6.02618C171.703 7.03218 171.688 7.6855 171.682 7.98615H171.954C172.299 7.98615 172.731 7.99055 173.25 7.99935C173.768 8.00816 174.115 8.01256 174.29 8.01256C175.138 8.01256 175.699 7.93451 175.971 7.77838C176.243 7.62225 176.391 7.33303 176.415 6.91069L176.968 6.96292C176.927 7.32321 176.896 7.65568 176.875 7.96033C176.854 8.26497 176.844 8.5482 176.844 8.81001C176.844 8.96053 176.859 9.28438 176.889 9.78158C176.9 9.96173 176.909 10.0968 176.915 10.1887L176.344 10.2061V10.1371C176.344 9.64588 176.199 9.31341 175.909 9.13967C175.62 8.96593 174.942 8.87927 173.877 8.87967H171.682C171.682 9.1631 171.679 9.5548 171.673 10.0548C171.667 10.5548 171.664 10.9151 171.665 11.1357C171.665 11.5168 171.668 11.9141 171.673 12.3276C171.679 12.7412 171.691 13.2254 171.708 13.7802C172.001 13.815 172.333 13.8411 172.705 13.8583C173.077 13.8755 173.485 13.8843 173.93 13.8847C175.399 13.8847 176.366 13.7446 176.832 13.4644C177.297 13.1841 177.668 12.6451 177.942 11.8473L178.574 12.055C178.399 12.5354 178.244 13.0066 178.109 13.4686C177.974 13.9305 177.857 14.3909 177.758 14.8497C176.839 14.8148 175.984 14.7888 175.194 14.7716C174.403 14.7544 173.69 14.7456 173.052 14.7452C172.18 14.7452 170.775 14.777 168.838 14.8407L168.522 14.8497V14.2858C168.562 14.2918 168.602 14.296 168.643 14.299C168.685 14.302 168.738 14.3032 168.814 14.3032C169.593 14.3032 169.988 13.2224 170 11.0606C170.005 10.5174 170.011 10.0924 170.017 9.78579L170.052 7.41809C170.058 6.90928 170.062 6.41509 170.065 5.9355C170.068 5.45592 170.07 4.9355 170.069 4.37425C170.069 3.87705 169.976 3.53296 169.789 3.342C169.601 3.15105 169.268 3.05577 168.788 3.05617H168.717L168.714 2.4707Z" fill="white"/>
<path d="M55.5518 17.1885C57.5872 17.1885 59.4049 17.4761 61.0051 18.0514C62.6239 18.6383 64.1038 19.5465 65.3537 20.7199C66.885 22.1433 68.0991 23.8663 68.9187 25.779C69.7455 27.7121 70.1658 29.791 70.154 31.8895C70.1644 34.0325 69.7198 36.1538 68.8488 38.1165C67.9965 40.0494 66.7283 41.7757 65.1324 43.1756C63.8472 44.3129 62.3509 45.2024 60.6433 45.8441C58.9358 46.4858 57.2253 46.8061 55.5117 46.8049C53.3688 46.8049 51.3971 46.4148 49.5963 45.6346C47.7956 44.8543 46.2054 43.697 44.8258 42.1626C43.5778 40.7782 42.6005 39.1773 41.9435 37.441C41.2783 35.6788 40.9415 33.8122 40.9495 31.9315C40.9381 29.898 41.3447 27.8833 42.1447 26.0096C42.9377 24.1563 44.1187 22.4897 45.61 21.1192C46.9487 19.8661 48.5168 18.8763 50.2304 18.2027C51.9222 17.5317 53.7287 17.1874 55.5518 17.1885ZM65.7154 32.5837C65.7154 28.735 64.7111 25.5772 62.7024 23.1104C60.6938 20.6437 58.1629 19.4103 55.1098 19.4103C52.1771 19.4103 49.8237 20.4685 48.0497 22.585C46.2757 24.7015 45.3885 27.5318 45.3881 31.0759C45.3881 35.0174 46.3959 38.2512 48.4115 40.7773C50.427 43.3033 52.9479 44.5665 55.9743 44.5669C58.8924 44.5669 61.2458 43.479 63.0344 41.3033C64.823 39.1275 65.7166 36.221 65.7154 32.5837Z" fill="white"/>
<path d="M78.751 44.7651H79.4538C80.4046 44.7651 81.0809 44.6494 81.4825 44.418C81.8842 44.1866 82.1655 43.7601 82.3264 43.1384C82.4479 42.7284 82.5316 41.2405 82.5774 38.6744C82.6232 36.1083 82.6465 32.1141 82.6474 26.6917V20.3627H78.5899C76.6214 20.3627 75.2922 20.6229 74.6024 21.1433C73.9126 21.6637 73.4005 22.7646 73.0661 24.4459L71.7603 24.1685C72.0152 23.0172 72.2093 21.8863 72.3427 20.7758C72.4751 19.6894 72.5423 18.5962 72.5439 17.502C72.9455 17.7534 73.759 17.9321 74.9842 18.0382C76.2094 18.1443 78.3553 18.1971 81.4217 18.1967H86.323C90.3938 18.1967 93.0151 18.1471 94.1868 18.0478C95.3585 17.9485 96.1788 17.7666 96.6478 17.502C96.6478 17.6347 96.6405 17.843 96.6277 18.1271C96.6149 18.4111 96.607 18.6267 96.607 18.772C96.607 19.6055 96.6439 20.4661 96.7177 21.3541C96.7914 22.242 96.9019 23.1545 97.049 24.0917L95.7839 24.3318C95.6217 22.837 95.21 21.8186 94.5485 21.2766C93.8871 20.7346 92.491 20.4303 90.3604 20.3639H86.5644C86.551 21.1181 86.5376 22.1827 86.5242 23.5578C86.4971 27.1683 86.4837 29.5955 86.4841 30.8393C86.4841 35.5343 86.5141 38.715 86.5741 40.3816C86.6341 42.0481 86.738 43.0863 86.886 43.4963C87.0598 43.9723 87.3476 44.3029 87.7492 44.4883C88.1509 44.6736 88.7669 44.7663 89.5974 44.7663H90.3002V46.1552C89.1889 46.1024 88.1412 46.0623 87.1571 46.0351C86.173 46.0079 85.2925 45.9949 84.5156 45.9961C83.8326 45.9961 82.9925 46.0091 81.995 46.0351C80.9976 46.0611 79.9163 46.1012 78.751 46.1552V44.7651Z" fill="white"/>
<path d="M108.86 17.8428H112.314C114.055 23.0974 115.705 27.8955 117.266 32.237C118.826 36.5785 120.055 39.8411 120.952 42.0248C121.487 43.2822 121.948 44.0567 122.337 44.3481C122.726 44.6395 123.281 44.7851 124.004 44.7847H124.406V46.1538C123.361 46.1009 122.407 46.0609 121.544 46.0337C120.68 46.0064 119.954 45.9934 119.364 45.9946C118.614 45.9946 117.791 46.0076 116.894 46.0337C115.997 46.0597 115.046 46.0997 114.042 46.1538V44.7847H114.423C115.374 44.7847 116.024 44.6754 116.372 44.4568C116.72 44.2382 116.894 43.8379 116.894 43.2558C116.891 43.0188 116.864 42.7827 116.814 42.5509C116.745 42.2379 116.657 41.9292 116.552 41.6261L114.584 35.542C114.075 35.542 113.379 35.5354 112.495 35.5222C110.888 35.4822 109.857 35.4622 109.402 35.4622C108.491 35.4622 107.631 35.4654 106.821 35.4718C106.011 35.4782 105.171 35.4948 104.3 35.5216C103.349 37.8939 102.701 39.6237 102.355 40.711C102.008 41.7982 101.834 42.5735 101.832 43.0366C101.832 43.6864 102.006 44.1405 102.355 44.3991C102.703 44.6577 103.325 44.7869 104.222 44.7865H104.764V46.1555C103.787 46.1027 102.873 46.0627 102.023 46.0354C101.172 46.0082 100.413 45.9952 99.7434 45.9964C99.2072 45.9964 98.5384 46.0094 97.7372 46.0354C96.9359 46.0615 96.0645 46.1015 95.123 46.1555V44.8063C96.0734 44.7798 96.8264 44.5913 97.3821 44.2406C97.9378 43.8899 98.4241 43.3041 98.8412 42.483C99.591 40.935 100.92 37.8347 102.828 33.1821C104.736 28.5296 106.747 23.4165 108.86 17.8428ZM109.764 21.573L105.164 33.4367C105.418 33.4367 105.786 33.4433 106.268 33.4565C107.782 33.4966 108.813 33.5166 109.362 33.5166C110.031 33.5166 111.243 33.4966 112.997 33.4565C113.386 33.4433 113.681 33.4367 113.881 33.4367L109.764 21.573Z" fill="white"/>
<path d="M126.977 44.8638C127.071 44.877 127.159 44.8872 127.248 44.8938C127.337 44.9004 127.466 44.9034 127.64 44.9034C129.421 44.9034 130.325 42.4302 130.352 37.4839C130.365 36.2429 130.378 35.2707 130.392 34.5673L130.472 29.151C130.485 27.9872 130.496 26.8565 130.502 25.7588C130.509 24.6611 130.513 23.4708 130.512 22.1878C130.512 21.0504 130.298 20.2634 129.87 19.8266C129.441 19.3899 128.678 19.1717 127.579 19.1721H127.419V17.7832C128.316 17.8501 129.203 17.8963 130.081 17.9219C130.958 17.9475 131.811 17.961 132.641 17.9622C133.539 17.9622 134.653 17.9323 135.985 17.8727C137.317 17.813 138.204 17.7832 138.647 17.7832C141.392 17.7832 143.641 18.4974 145.395 19.9257C147.148 21.3541 148.026 23.1463 148.026 25.3025C148.026 26.9038 147.587 28.3289 146.71 29.5779C145.833 30.8269 144.518 31.895 142.764 32.7821L146.519 38.3966C146.653 38.608 146.854 38.912 147.122 39.3087C149.72 43.2239 151.849 45.1814 153.51 45.1814H153.71V46.3122C153.522 46.3254 153.241 46.3518 152.866 46.3914C151.996 46.4715 151.36 46.5115 150.959 46.5115C149.54 46.5115 148.419 46.323 147.594 45.9459C146.77 45.5688 145.956 44.838 145.153 43.7535C145.02 43.5818 144.28 42.4046 142.934 40.2221C141.589 38.0395 140.233 35.9829 138.867 34.0521C138.358 34.1049 137.816 34.145 137.24 34.1722C136.664 34.1994 136.028 34.2126 135.331 34.2118H134.126V40.3025C134.126 42.2865 134.334 43.5397 134.749 44.0622C135.164 44.5846 135.988 44.8458 137.22 44.8458C137.274 44.8442 137.327 44.8375 137.38 44.826C137.433 44.8144 137.487 44.8078 137.541 44.8061C137.586 44.8047 137.63 44.8114 137.671 44.826C137.694 44.8362 137.717 44.8429 137.742 44.8458V46.1554C136.791 46.1026 135.847 46.0626 134.91 46.0353C133.973 46.0081 133.042 45.9951 132.118 45.9963C131.622 45.9963 130.926 46.0093 130.029 46.0353C129.132 46.0613 128.114 46.1014 126.976 46.1554L126.977 44.8638ZM134.128 32.1666C134.77 32.233 135.376 32.2793 135.945 32.3053C136.515 32.3313 137.021 32.3447 137.465 32.3455C137.84 32.3455 138.268 32.3355 138.75 32.3155C139.233 32.2955 139.755 32.2591 140.317 32.2062C141.603 31.4396 142.547 30.5503 143.15 29.5383C143.752 28.5262 144.053 27.3193 144.053 25.9174C144.053 24.0791 143.451 22.6043 142.246 21.493C141.041 20.3817 139.419 19.8262 137.382 19.8266C136.833 19.8266 136.298 19.8499 135.775 19.8963C135.253 19.9428 134.737 20.0122 134.229 20.1047C134.188 21.746 134.161 23.4324 134.148 25.1637C134.135 26.8951 134.128 29.2294 134.128 32.1666Z" fill="white"/>
<path d="M151.944 17.8428C152.935 17.8956 153.865 17.9356 154.736 17.9629C155.606 17.9901 156.376 18.0033 157.046 18.0025C157.769 18.0025 158.546 17.9893 159.376 17.9629C160.206 17.9364 161.078 17.8964 161.99 17.8428V19.2119H161.709C160.972 19.2119 160.41 19.2879 160.022 19.4401C159.634 19.5922 159.439 19.8138 159.439 20.1048C159.439 20.4219 159.768 21.136 160.424 22.2473C160.598 22.538 160.738 22.776 160.846 22.9613L165.686 31.4924C167.882 28.014 169.529 25.329 170.628 23.4375C171.726 21.546 172.275 20.4483 172.274 20.1444C172.274 19.827 172.11 19.5922 171.782 19.4401C171.454 19.2879 170.922 19.2119 170.186 19.2119H169.843V17.8428C170.646 17.8956 171.41 17.9356 172.133 17.9629C172.856 17.9901 173.492 18.0033 174.041 18.0025C174.724 18.0025 175.42 17.9893 176.129 17.9629C176.839 17.9364 177.568 17.8964 178.318 17.8428V19.2119C178.286 19.1973 178.252 19.1872 178.217 19.1819C178.157 19.1741 178.096 19.1709 178.035 19.1723H177.792C176.6 19.1723 175.053 20.6801 173.152 23.6957C172.562 24.6348 172.093 25.3754 171.746 25.9175L166.684 33.5556L166.764 40.6383C166.791 42.477 167.005 43.6243 167.407 44.0803C167.808 44.5363 168.605 44.7644 169.797 44.7648H170.5V46.1538C169.389 46.1009 168.335 46.0609 167.339 46.0337C166.343 46.0064 165.449 45.9934 164.657 45.9946C163.988 45.9946 163.154 46.0076 162.157 46.0337C161.16 46.0597 160.078 46.0997 158.913 46.1538V44.7648C159.007 44.7648 159.147 44.7714 159.335 44.7847C159.522 44.7979 159.657 44.8045 159.737 44.8045C160.902 44.8045 161.692 44.5398 162.108 44.0106C162.524 43.4814 162.745 42.3837 162.771 40.7176L162.851 33.6727L156.363 22.864C156.241 22.6923 156.087 22.4411 155.901 22.1104C154.709 20.1264 153.624 19.1344 152.647 19.1344C152.563 19.1357 152.479 19.1423 152.396 19.1542C152.295 19.1674 152.151 19.1875 151.964 19.2143L151.944 17.8428Z" fill="white"/>
</g>
<defs>
<clipPath id="clip0_408_266">
<rect width="178" height="46" fill="white" transform="translate(0.574585 0.807617)"/>
</clipPath>
</defs>
</svg>
