<svg width="62" height="62" viewBox="0 0 62 62" fill="none" xmlns="http://www.w3.org/2000/svg">
<g clip-path="url(#clip0_408_370)">
<path d="M59.8759 18.3202C58.5122 16.9598 56.6645 16.1958 54.7382 16.1958C52.8119 16.1958 50.9643 16.9598 49.6005 18.3202L31.4354 36.4842C28.4618 39.4413 26.5612 43.307 26.0355 47.4674H23.806C23.3033 46.0518 22.3749 44.8264 21.1482 43.9592C19.9214 43.092 18.4565 42.6255 16.9542 42.6237C15.0278 42.6259 13.1809 43.3921 11.8188 44.7542C10.4566 46.1163 9.69035 47.963 9.68811 49.8893C9.68811 50.5316 9.94329 51.1477 10.3975 51.6018C10.8517 52.056 11.4678 52.3112 12.1101 52.3112C12.7525 52.3112 13.3685 52.056 13.8228 51.6018C14.277 51.1477 14.5321 50.5316 14.5321 49.8893C14.5321 49.247 14.7873 48.631 15.2415 48.1768C15.6958 47.7226 16.3118 47.4674 16.9542 47.4674C17.5965 47.4674 18.2126 47.7226 18.6668 48.1768C19.121 48.631 19.3762 49.247 19.3762 49.8893C19.3762 50.5316 19.6314 51.1477 20.0856 51.6018C20.5398 52.056 21.1558 52.3112 21.7982 52.3112H28.3049C30.7958 52.3181 33.2633 51.831 35.5646 50.878C37.866 49.9249 39.9554 48.525 41.712 46.759L59.8771 28.595C61.2377 27.2311 62.0018 25.3834 62.0018 23.457C62.0018 21.5306 61.2377 19.6828 59.8771 18.319L59.8759 18.3202ZM38.2873 43.3333C36.2973 45.3341 33.7496 46.6876 30.9776 47.2168C31.5073 44.4455 32.8609 41.8985 34.8613 39.9088L45.431 29.3397L48.8558 32.7642L38.2873 43.3333ZM56.4524 25.1692L52.2829 29.3385L48.857 25.914L53.0253 21.7459C53.4794 21.2916 54.0954 21.0364 54.7378 21.0362C55.3802 21.0361 55.9963 21.2912 56.4506 21.7453C56.9049 22.1994 57.1602 22.8154 57.1603 23.4578C57.1604 24.1001 56.9054 24.7162 56.4512 25.1705L56.4524 25.1692Z" fill="url(#paint0_linear_408_370)"/>
<path d="M46.0171 50.2697C45.3747 50.2697 44.7587 50.5248 44.3045 50.979C43.8503 51.4332 43.5951 52.0492 43.5951 52.6916V54.7344C43.5951 55.3767 43.3399 55.9927 42.8857 56.4469C42.4315 56.9011 41.8154 57.1563 41.1731 57.1563H7.26483C6.62247 57.1563 6.00642 56.9011 5.55221 56.4469C5.09799 55.9927 4.84281 55.3767 4.84281 54.7344V7.26565C4.84281 6.62333 5.09799 6.00732 5.55221 5.55313C6.00642 5.09894 6.62247 4.84378 7.26483 4.84378H34.3248C34.6429 4.84302 34.9579 4.90523 35.2518 5.02681C35.5457 5.1484 35.8126 5.32695 36.0372 5.55217L42.8879 12.4024C43.18 12.6953 43.3926 13.058 43.5055 13.456C43.6805 14.074 44.0939 14.5973 44.6548 14.9105C45.2156 15.2238 45.8779 15.3015 46.4961 15.1265C47.1142 14.9514 47.6374 14.538 47.9507 13.9772C48.264 13.4164 48.3417 12.7541 48.1666 12.136C47.8274 10.9428 47.1892 9.85576 46.3126 8.97792L39.4619 2.12764C38.7888 1.45104 37.9882 0.914617 37.1064 0.549416C36.2247 0.184214 35.2792 -0.00251692 34.3248 2.5619e-05H7.26483C5.33844 0.00226902 3.4916 0.768473 2.12943 2.13056C0.767271 3.49264 0.00102283 5.33938 -0.0012207 7.26565V54.7344C0.00102283 56.6607 0.767271 58.5074 2.12943 59.8695C3.4916 61.2316 5.33844 61.9978 7.26483 62H41.1731C43.0995 61.9978 44.9463 61.2316 46.3085 59.8695C47.6706 58.5074 48.4369 56.6607 48.4391 54.7344V52.6916C48.4391 52.0492 48.1839 51.4332 47.7297 50.979C47.2755 50.5248 46.6595 50.2697 46.0171 50.2697Z" fill="url(#paint1_linear_408_370)"/>
<path d="M26.641 19.375H12.1089C11.4665 19.375 10.8505 19.1198 10.3963 18.6656C9.94207 18.2115 9.68689 17.5954 9.68689 16.9531C9.68689 16.3108 9.94207 15.6948 10.3963 15.2406C10.8505 14.7864 11.4665 14.5312 12.1089 14.5312H26.641C27.2834 14.5313 27.8994 14.7864 28.3536 15.2406C28.8078 15.6948 29.063 16.3108 29.063 16.9531C29.063 17.5954 28.8078 18.2115 28.3536 18.6656C27.8994 19.1198 27.2834 19.375 26.641 19.375Z" fill="url(#paint2_linear_408_370)"/>
<path d="M26.641 29.0625H12.1089C11.4665 29.0625 10.8505 28.8073 10.3963 28.3531C9.94207 27.899 9.68689 27.2829 9.68689 26.6406C9.68689 25.9983 9.94207 25.3823 10.3963 24.9281C10.8505 24.4739 11.4665 24.2188 12.1089 24.2188H26.641C27.2834 24.2188 27.8994 24.4739 28.3536 24.9281C28.8078 25.3823 29.063 25.9983 29.063 26.6406C29.063 27.2829 28.8078 27.899 28.3536 28.3531C27.8994 28.8073 27.2834 29.0625 26.641 29.0625Z" fill="url(#paint3_linear_408_370)"/>
</g>
<defs>
<linearGradient id="paint0_linear_408_370" x1="35.8449" y1="16.1958" x2="35.8449" y2="52.3113" gradientUnits="userSpaceOnUse">
<stop stop-color="#FFDF7C"/>
<stop offset="1" stop-color="#AE9C64"/>
</linearGradient>
<linearGradient id="paint1_linear_408_370" x1="24.2189" y1="0" x2="24.2189" y2="62" gradientUnits="userSpaceOnUse">
<stop stop-color="#FFDF7C"/>
<stop offset="1" stop-color="#AE9C64"/>
</linearGradient>
<linearGradient id="paint2_linear_408_370" x1="19.375" y1="14.5312" x2="19.375" y2="19.375" gradientUnits="userSpaceOnUse">
<stop stop-color="#FFDF7C"/>
<stop offset="1" stop-color="#AE9C64"/>
</linearGradient>
<linearGradient id="paint3_linear_408_370" x1="19.375" y1="24.2188" x2="19.375" y2="29.0625" gradientUnits="userSpaceOnUse">
<stop stop-color="#FFDF7C"/>
<stop offset="1" stop-color="#AE9C64"/>
</linearGradient>
<clipPath id="clip0_408_370">
<rect width="62" height="62" fill="white"/>
</clipPath>
</defs>
</svg>
