<svg width="98" height="67" viewBox="0 0 98 67" fill="none" xmlns="http://www.w3.org/2000/svg">
<path d="M64.9333 59.2545V59.6545V62.75V63.15H64.5333H55.5218H55.521C54.1155 63.1472 52.7685 62.5866 51.7753 61.5911C50.7822 60.5957 50.2239 59.2467 50.2228 57.84V57.8389C50.2238 57.3572 50.0818 56.886 49.8149 56.4853C49.548 56.0846 49.1682 55.7724 48.7238 55.5882C48.2795 55.404 47.7905 55.3562 47.3189 55.4507C46.8474 55.5453 46.4145 55.7779 46.0751 56.1193L46.0745 56.12L39.2719 62.9301L39.2719 62.9302C37.1568 65.047 34.2891 66.2373 31.2981 66.2395C28.3073 66.2418 25.4379 65.0559 23.3197 62.9424C23.3196 62.9423 23.3195 62.9423 23.3194 62.9422M64.9333 59.2545L23.602 62.659L23.3194 62.9422M64.9333 59.2545H64.5333H55.5218C55.3365 59.2545 55.153 59.2179 54.9817 59.1468C54.8105 59.0758 54.6549 58.9716 54.5239 58.8403C54.3928 58.7089 54.2889 58.553 54.218 58.3814C54.1472 58.2098 54.1108 58.0259 54.111 57.8401V57.8392C54.1095 56.5888 53.7378 55.3668 53.0429 54.3277C52.3479 53.2886 51.3609 52.4789 50.2064 52.001C49.0519 51.5231 47.7818 51.3985 46.5565 51.643C45.3313 51.8874 44.206 52.4899 43.3227 53.3742L36.5202 60.1843C35.1347 61.5714 33.2562 62.3513 31.2971 62.353C29.3379 62.3547 27.4581 61.5781 26.0702 60.1935L26.0701 60.1935L21.6079 55.7437L21.5939 55.7297L21.5785 55.7172C21.4515 55.6133 21.3257 55.5084 21.2016 55.4022M64.9333 59.2545L20.8617 55.6374M23.3194 62.9422L18.9831 58.6222M23.3194 62.9422L18.9831 58.6222M18.9831 58.6222C18.5227 58.2435 18.0776 57.85 17.6477 57.4416L3.56277 64.4929L3.20475 64.6721L3.02585 64.3139L1.64215 61.5435L1.46355 61.1859L1.82102 61.007L14.9648 54.4306C11.7504 50.1359 10.0131 44.9081 10.022 39.533C10.0222 36.9643 11.0415 34.5008 12.856 32.6843C14.6706 30.8677 17.1318 29.8471 19.6982 29.8471C22.2647 29.8471 24.7259 30.8677 26.5405 32.6843C28.355 34.5008 29.3743 36.9643 29.3745 39.533M18.9831 58.6222L28.9745 39.5336M29.3745 39.533C29.3745 39.5332 29.3745 39.5334 29.3745 39.5336H28.9745M29.3745 39.533C29.3745 39.5327 29.3744 39.5325 29.3744 39.5323L28.9745 39.5336M29.3745 39.533C29.3847 42.7281 28.6049 45.8762 27.1044 48.6963C25.6851 51.364 23.6628 53.6598 21.2016 55.4022M28.9745 39.5336C28.9846 42.6631 28.2208 45.7463 26.7513 48.5084C25.3463 51.1493 23.3378 53.418 20.892 55.131C20.9938 55.2224 21.0971 55.3128 21.2016 55.4022M21.2016 55.4022C21.0892 55.4817 20.9759 55.5601 20.8617 55.6374M20.8617 55.6374C20.7575 55.5472 20.6543 55.4559 20.5524 55.3633L20.8617 55.6374ZM15.3284 54.2487C15.41 54.3571 15.4926 54.4649 15.5761 54.572L15.2114 54.7545L15.3284 54.2487ZM13.9141 39.5343V39.5336C13.9141 37.9976 14.5236 36.5246 15.6084 35.4386C16.6932 34.3526 18.1643 33.7426 19.6982 33.7426C21.2321 33.7426 22.7033 34.3526 23.7881 35.4386C24.8729 36.5246 25.4824 37.9976 25.4824 39.5336L25.4824 39.535C25.4917 42.181 24.8236 44.7853 23.5421 47.0994C22.3174 49.3107 20.5715 51.1866 18.4586 52.565C15.5115 48.8672 13.9064 44.272 13.9141 39.5343Z" fill="url(#paint0_linear_408_409)" stroke="url(#paint1_linear_408_409)" stroke-width="0.8"/>
<path d="M69.341 50.5336L69.3424 50.5322L88.4738 31.3795C88.4739 31.3793 88.4741 31.3792 88.4743 31.379C88.9582 30.8917 89.534 30.5054 90.1683 30.2424C90.8027 29.9794 91.4829 29.845 92.1696 29.8471L69.341 50.5336ZM69.341 50.5336C69.1563 50.7204 69.0106 50.9421 68.9124 51.1857L68.9119 51.1869M69.341 50.5336L68.9119 51.1869M68.9119 51.1869L65.8199 58.9256C65.8199 58.9256 65.8198 58.9256 65.8198 58.9257C65.6784 59.2795 65.6437 59.6672 65.7202 60.0405C65.7968 60.4139 65.9811 60.7567 66.2504 61.0264C66.5197 61.296 66.8622 61.4806 67.2355 61.5572C67.6087 61.6339 67.9961 61.5992 68.3498 61.4575C68.3499 61.4575 68.3499 61.4575 68.3499 61.4575L76.08 58.362L76.0831 58.3607M68.9119 51.1869L76.0831 58.3607M76.0831 58.3607C76.3246 58.2617 76.5445 58.1163 76.7303 57.9328L76.7322 57.9309M76.0831 58.3607L76.7322 57.9309M76.7322 57.9309L95.8644 38.7774L95.8652 38.7766M76.7322 57.9309L95.8652 38.7766M95.8652 38.7766C96.5931 38.0439 97.0882 37.1121 97.2882 36.0984M95.8652 38.7766L97.2882 36.0984M97.2882 36.0984C97.4882 35.0847 97.3841 34.0344 96.9891 33.0797M97.2882 36.0984L96.9891 33.0797M96.9891 33.0797C96.594 32.1251 95.9257 31.3087 95.0681 30.7335M96.9891 33.0797L95.0681 30.7335M95.0681 30.7335C94.2105 30.1582 93.2021 29.8498 92.1698 29.8471L95.0681 30.7335ZM93.2106 35.9239L93.1127 36.022L74.2607 54.8988L71.1264 56.1569L72.384 53.0109L91.2297 34.1346C91.2301 34.1342 91.2305 34.1338 91.2309 34.1334C91.4186 33.9491 91.6563 33.8242 91.9143 33.7742C92.1729 33.7242 92.4405 33.7515 92.6836 33.853C92.9267 33.9544 93.1346 34.1254 93.2813 34.3446L93.6137 34.1222L93.2813 34.3446C93.4276 34.5634 93.5064 34.8204 93.5078 35.0837C93.5061 35.3907 93.4005 35.6865 93.2106 35.9239Z" fill="url(#paint2_linear_408_409)" stroke="url(#paint3_linear_408_409)" stroke-width="0.8"/>
<path d="M49.0727 44.5771C53.4328 44.5771 57.6949 43.2827 61.3202 40.8577C64.9454 38.4327 67.7708 34.9861 69.4392 30.9536C71.1077 26.9211 71.5442 22.484 70.6936 18.2032C69.8431 13.9224 67.7436 9.99013 64.6607 6.90376C61.5777 3.81737 57.6498 1.71547 53.3735 0.863912C49.0972 0.0123556 44.6647 0.449409 40.6365 2.11979C36.6084 3.79016 33.1655 6.61881 30.7433 10.248C28.3211 13.8771 27.0282 18.1438 27.0282 22.5085C27.0282 28.3613 29.3507 33.9745 33.4847 38.1132C37.6189 42.2519 43.226 44.5771 49.0727 44.5771ZM49.0727 4.33537C52.6628 4.33537 56.1723 5.40114 59.1575 7.39797C62.1426 9.3948 64.4693 12.233 65.8433 15.5538C67.2173 18.8745 67.5768 22.5286 66.8763 26.0539C66.1759 29.5792 64.447 32.8174 61.9083 35.3589C59.3696 37.9004 56.1351 39.6312 52.614 40.3324C49.0929 41.0336 45.4431 40.6737 42.1262 39.2983C38.8094 37.9228 35.9743 35.5936 33.9796 32.6051C31.985 29.6165 30.9203 26.1029 30.9203 22.5085C30.9203 17.6885 32.8329 13.0661 36.2372 9.65799C39.6414 6.24992 44.2585 4.33537 49.0727 4.33537Z" fill="url(#paint4_linear_408_409)" stroke="url(#paint5_linear_408_409)" stroke-width="0.8"/>
<path d="M47.7563 31.8168L47.7562 31.8169C47.6162 31.952 47.4508 32.0584 47.2697 32.1307C47.0888 32.203 46.8953 32.24 46.7003 32.2398M47.7563 31.8168L58.7555 14.8637C58.6156 14.7285 58.4503 14.622 58.2693 14.5495L58.1206 14.9208L58.2693 14.5495C58.0882 14.477 57.8946 14.4398 57.6994 14.4398C57.5042 14.4398 57.3106 14.477 57.1295 14.5495C56.9484 14.622 56.783 14.7286 56.6431 14.8639L46.7003 24.4694L43.3569 21.2386C43.3568 21.2386 43.3568 21.2385 43.3567 21.2385C43.2169 21.1032 43.0515 20.9967 42.8705 20.9242C42.6894 20.8517 42.4958 20.8145 42.3006 20.8145C42.1054 20.8145 41.9118 20.8517 41.7307 20.9242C41.5497 20.9967 41.3844 21.1032 41.2445 21.2384C41.2445 21.2385 41.2444 21.2385 41.2444 21.2386L39.0448 23.3632C38.9048 23.4983 38.7929 23.6596 38.7163 23.8381C38.6396 24.0167 38.6 24.2086 38.6 24.4027C38.6 24.5969 38.6396 24.7888 38.7163 24.9673C38.7929 25.1458 38.9048 25.3071 39.0448 25.4422L45.6442 31.8168L45.6443 31.8169C45.7843 31.952 45.9497 32.0584 46.1308 32.1307C46.3118 32.203 46.5052 32.24 46.7003 32.2398M47.7563 31.8168L60.9552 19.0676C61.0952 18.9324 61.2071 18.7711 61.2837 18.5926C61.3604 18.4141 61.4 18.2222 61.4 18.028C61.4 17.8339 61.3604 17.642 61.2837 17.4634C61.2072 17.285 61.0953 17.1238 60.9553 16.9886C60.9553 16.9886 60.9552 16.9885 60.9552 16.9885L58.7556 14.8639L47.7563 31.8168ZM46.7003 32.2398C46.7004 32.2398 46.7005 32.2398 46.7006 32.2398L46.7003 31.8398L46.7 32.2398C46.7001 32.2398 46.7002 32.2398 46.7003 32.2398ZM42.2315 24.4027L42.3006 24.336L45.644 27.5668C45.7839 27.7021 45.9493 27.8087 46.1304 27.8812C46.3114 27.9537 46.505 27.9909 46.7003 27.9909C46.8955 27.9909 47.0891 27.9537 47.2702 27.8812C47.4512 27.8088 47.6165 27.7022 47.7564 27.567C47.7564 27.5669 47.7564 27.5669 47.7565 27.5669C47.7565 27.5668 47.7565 27.5668 47.7565 27.5668L57.6994 17.9613L57.7685 18.028L46.7003 28.7192L42.2315 24.4027Z" fill="url(#paint6_linear_408_409)" stroke="url(#paint7_linear_408_409)" stroke-width="0.8"/>
<defs>
<linearGradient id="paint0_linear_408_409" x1="33.2666" y1="30.2471" x2="33.2666" y2="65.8395" gradientUnits="userSpaceOnUse">
<stop stop-color="#FFDF7C"/>
<stop offset="1" stop-color="#AE9C64"/>
</linearGradient>
<linearGradient id="paint1_linear_408_409" x1="33.2666" y1="30.2471" x2="33.2666" y2="65.8395" gradientUnits="userSpaceOnUse">
<stop stop-color="#FFDF7C"/>
<stop offset="1" stop-color="#AE9C64"/>
</linearGradient>
<linearGradient id="paint2_linear_408_409" x1="81.5339" y1="30.2471" x2="81.5339" y2="61.197" gradientUnits="userSpaceOnUse">
<stop stop-color="#FFDF7C"/>
<stop offset="1" stop-color="#AE9C64"/>
</linearGradient>
<linearGradient id="paint3_linear_408_409" x1="81.5339" y1="30.2471" x2="81.5339" y2="61.197" gradientUnits="userSpaceOnUse">
<stop stop-color="#FFDF7C"/>
<stop offset="1" stop-color="#AE9C64"/>
</linearGradient>
<linearGradient id="paint4_linear_408_409" x1="49.0727" y1="0.839844" x2="49.0727" y2="44.1771" gradientUnits="userSpaceOnUse">
<stop stop-color="#FFDF7C"/>
<stop offset="1" stop-color="#AE9C64"/>
</linearGradient>
<linearGradient id="paint5_linear_408_409" x1="49.0727" y1="0.839844" x2="49.0727" y2="44.1771" gradientUnits="userSpaceOnUse">
<stop stop-color="#FFDF7C"/>
<stop offset="1" stop-color="#AE9C64"/>
</linearGradient>
<linearGradient id="paint6_linear_408_409" x1="50" y1="14.8398" x2="50" y2="31.8398" gradientUnits="userSpaceOnUse">
<stop stop-color="#FFDF7C"/>
<stop offset="1" stop-color="#AE9C64"/>
</linearGradient>
<linearGradient id="paint7_linear_408_409" x1="50" y1="14.8398" x2="50" y2="31.8398" gradientUnits="userSpaceOnUse">
<stop stop-color="#FFDF7C"/>
<stop offset="1" stop-color="#AE9C64"/>
</linearGradient>
</defs>
</svg>
