<svg width="65" height="64" viewBox="0 0 65 64" fill="none" xmlns="http://www.w3.org/2000/svg">
<path d="M46.3829 4.00438C42.0302 1.78399 37.2106 0.634083 32.3243 0.650166C24.01 0.650322 16.0362 3.95323 10.1571 9.83234C4.27788 15.7116 0.974951 23.6856 0.974951 32.0001C0.974951 40.3146 4.27788 48.2886 10.1571 54.1678C16.0364 60.0471 24.0104 63.35 32.3249 63.35H32.3252C40.6373 63.3423 48.6067 60.0369 54.4842 54.1594C60.3617 48.2819 63.6671 40.3125 63.6748 32.0004V32.0001V30.8754V30.8591L63.6733 30.8429C63.6111 30.1769 63.2869 29.5628 62.772 29.1358C62.2571 28.7088 61.5936 28.5039 60.9276 28.566C60.2616 28.6282 59.6475 28.9524 59.2205 29.4673C58.7948 29.9807 58.5897 30.6419 58.6502 31.306C58.664 31.5298 58.6639 31.7543 58.6499 31.9782L58.6492 31.9889L58.6492 31.9997C58.6436 37.205 57.0949 42.2917 54.1989 46.617C51.303 50.9422 47.1897 54.3119 42.3791 56.2999C37.5684 58.288 32.2764 58.8052 27.1718 57.7863C22.0673 56.7674 17.3794 54.258 13.7007 50.5753C10.022 46.8927 7.5177 42.2021 6.50427 37.0964C5.49085 31.9908 6.01382 26.6993 8.00708 21.8908C10.0003 17.0823 13.3744 12.9727 17.7028 10.0814C22.0312 7.19008 27.1196 5.6469 32.3249 5.6469L32.3255 5.6469C36.4224 5.63922 40.4614 6.61481 44.1031 8.49173L44.1051 8.49272C44.3998 8.64228 44.7211 8.73232 45.0506 8.75771C45.3801 8.7831 45.7114 8.74334 46.0255 8.6407C46.3396 8.53806 46.6305 8.37455 46.8815 8.1595C47.1324 7.94445 47.3385 7.68208 47.4881 7.38737C47.6377 7.09266 47.7277 6.77137 47.7531 6.44186C47.7785 6.11235 47.7387 5.78107 47.6361 5.46692C47.5334 5.15278 47.3699 4.86192 47.1549 4.61097C46.9399 4.36005 46.6775 4.15393 46.3829 4.00438ZM46.3829 4.00438C46.383 4.00447 46.3832 4.00457 46.3834 4.00466L46.2244 4.31644L46.3828 4.00432C46.3828 4.00434 46.3828 4.00436 46.3829 4.00438Z" fill="black" stroke="black" stroke-width="0.7"/>
<path d="M16.0241 27.8836L16.0241 27.8836L16.0277 27.8871L29.9494 41.5494C30.1878 41.8004 30.4754 41.9997 30.7944 42.1346C31.1129 42.2694 31.4558 42.3371 31.8015 42.3335C32.1603 42.3432 32.5174 42.2794 32.8507 42.1461C33.1863 42.0118 33.4907 41.81 33.7449 41.553L63.0984 12.7186L63.1018 12.7152C63.6004 12.2159 63.8805 11.5392 63.8805 10.8335C63.8805 10.1279 63.6004 9.45109 63.1018 8.95182L63.1018 8.95176L63.0954 8.94555C62.5882 8.45553 61.9105 8.18164 61.2052 8.18164C60.4999 8.18164 59.8222 8.45553 59.315 8.94555L59.315 8.94554L59.3118 8.94865L31.835 35.9699L19.8145 24.1175L19.8145 24.1174L19.8109 24.1139C19.3036 23.6239 18.6259 23.35 17.9207 23.35C17.2154 23.35 16.5377 23.6239 16.0305 24.1139L16.0304 24.1138L16.0241 24.1202C15.5254 24.6194 15.2454 25.2962 15.2454 26.0019C15.2454 26.7075 15.5254 27.3843 16.0241 27.8836Z" fill="black" stroke="black"/>
</svg>
