<svg width="51" height="66" viewBox="0 0 51 66" fill="none" xmlns="http://www.w3.org/2000/svg">
<mask id="path-1-outside-1_440_774" maskUnits="userSpaceOnUse" x="-0.675049" y="0" width="52" height="66" fill="black">
<rect fill="white" x="-0.675049" width="52" height="66"/>
<path d="M10.0515 11.6207C10.0515 11.3372 10.1664 11.0653 10.371 10.8648C10.5755 10.6643 10.853 10.5517 11.1423 10.5517H30.777C31.0663 10.5517 31.3437 10.6643 31.5483 10.8648C31.7529 11.0653 31.8678 11.3372 31.8678 11.6207C31.8678 11.9042 31.7529 12.1761 31.5483 12.3766C31.3437 12.577 31.0663 12.6897 30.777 12.6897H11.1423C10.853 12.6897 10.5755 12.577 10.371 12.3766C10.1664 12.1761 10.0515 11.9042 10.0515 11.6207ZM49.3209 58.6552C49.3209 60.0727 48.7462 61.4322 47.7234 62.4345C46.7006 63.4369 45.3133 64 43.8668 64H6.77903C5.33252 64 3.94525 63.4369 2.92241 62.4345C1.89958 61.4322 1.32495 60.0727 1.32495 58.6552V7.34483C1.32495 5.92729 1.89958 4.56781 2.92241 3.56546C3.94525 2.56311 5.33252 2 6.77903 2H35.1402C35.4267 2.01473 35.6992 2.12561 35.912 2.31401L49.0018 15.1416C49.184 15.3292 49.2926 15.5739 49.3086 15.8324C49.3454 15.8872 49.3072 58.5897 49.3209 58.6552ZM36.2311 11.6207C36.2311 12.4712 36.5758 13.2869 37.1895 13.8883C37.8032 14.4897 38.6356 14.8276 39.5035 14.8276H45.5971L36.2311 5.64918V11.6207ZM47.1392 58.6552V16.9655H39.5035C38.057 16.9655 36.6697 16.4024 35.6469 15.4001C34.6241 14.3977 34.0494 13.0382 34.0494 11.6207V4.13793H6.77903C5.91112 4.13793 5.07876 4.4758 4.46506 5.07721C3.85136 5.67862 3.50658 6.49431 3.50658 7.34483V58.6552C3.50658 59.5057 3.85136 60.3214 4.46506 60.9228C5.07876 61.5242 5.91112 61.8621 6.77903 61.8621H43.8668C44.7347 61.8621 45.567 61.5242 46.1807 60.9228C46.7944 60.3214 47.1392 59.5057 47.1392 58.6552ZM39.5035 19.1034H11.1423C10.853 19.1034 10.5755 19.2161 10.371 19.4165C10.1664 19.617 10.0515 19.8889 10.0515 20.1724C10.0515 20.4559 10.1664 20.7278 10.371 20.9283C10.5755 21.1288 10.853 21.2414 11.1423 21.2414H39.5035C39.7928 21.2414 40.0703 21.1288 40.2748 20.9283C40.4794 20.7278 40.5943 20.4559 40.5943 20.1724C40.5943 19.8889 40.4794 19.617 40.2748 19.4165C40.0703 19.2161 39.7928 19.1034 39.5035 19.1034ZM39.5035 27.6552H11.1423C10.853 27.6552 10.5755 27.7678 10.371 27.9683C10.1664 28.1687 10.0515 28.4406 10.0515 28.7241C10.0515 29.0076 10.1664 29.2795 10.371 29.48C10.5755 29.6805 10.853 29.7931 11.1423 29.7931H39.5035C39.7928 29.7931 40.0703 29.6805 40.2748 29.48C40.4794 29.2795 40.5943 29.0076 40.5943 28.7241C40.5943 28.4406 40.4794 28.1687 40.2748 27.9683C40.0703 27.7678 39.7928 27.6552 39.5035 27.6552ZM38.0936 45.0713C38.2464 45.2208 38.3504 45.4113 38.3925 45.6188C38.4347 45.8263 38.4131 46.0413 38.3305 46.2368C38.2478 46.4322 38.1079 46.5992 37.9284 46.7167C37.7488 46.8341 37.5377 46.8967 37.3219 46.8966H30.777V55.4483C30.777 56.2988 30.4322 57.1145 29.8185 57.7159C29.2048 58.3173 28.3724 58.6552 27.5045 58.6552H23.1413C22.2734 58.6552 21.441 58.3173 20.8273 57.7159C20.2136 57.1145 19.8688 56.2988 19.8688 55.4483V46.8966H13.3239C13.1081 46.8967 12.897 46.8341 12.7175 46.7167C12.5379 46.5992 12.398 46.4322 12.3153 46.2368C12.2327 46.0413 12.2111 45.8263 12.2533 45.6188C12.2954 45.4113 12.3994 45.2208 12.5522 45.0713L23.0049 34.8253C23.6186 34.2239 24.4509 33.8861 25.3188 33.8861C26.1867 33.8861 27.019 34.2239 27.6327 34.8253L38.0936 45.0713ZM34.6848 44.7586L26.0947 36.3405C25.9933 36.2411 25.873 36.1623 25.7406 36.1085C25.6082 36.0547 25.4663 36.027 25.3229 36.027C25.1796 36.027 25.0376 36.0547 24.9052 36.1085C24.7728 36.1623 24.6525 36.2411 24.5512 36.3405L15.961 44.7586H20.9596C21.2489 44.7586 21.5264 44.8712 21.731 45.0717C21.9355 45.2722 22.0505 45.5441 22.0505 45.8276V55.4483C22.0505 55.7318 22.1654 56.0037 22.3699 56.2042C22.5745 56.4046 22.852 56.5172 23.1413 56.5172H27.5045C27.7938 56.5172 28.0713 56.4046 28.2759 56.2042C28.4804 56.0037 28.5954 55.7318 28.5954 55.4483V45.8276C28.5954 45.5441 28.7103 45.2722 28.9148 45.0717C29.1194 44.8712 29.3969 44.7586 29.6862 44.7586H34.6848Z"/>
</mask>
<path d="M10.0515 11.6207C10.0515 11.3372 10.1664 11.0653 10.371 10.8648C10.5755 10.6643 10.853 10.5517 11.1423 10.5517H30.777C31.0663 10.5517 31.3437 10.6643 31.5483 10.8648C31.7529 11.0653 31.8678 11.3372 31.8678 11.6207C31.8678 11.9042 31.7529 12.1761 31.5483 12.3766C31.3437 12.577 31.0663 12.6897 30.777 12.6897H11.1423C10.853 12.6897 10.5755 12.577 10.371 12.3766C10.1664 12.1761 10.0515 11.9042 10.0515 11.6207ZM49.3209 58.6552C49.3209 60.0727 48.7462 61.4322 47.7234 62.4345C46.7006 63.4369 45.3133 64 43.8668 64H6.77903C5.33252 64 3.94525 63.4369 2.92241 62.4345C1.89958 61.4322 1.32495 60.0727 1.32495 58.6552V7.34483C1.32495 5.92729 1.89958 4.56781 2.92241 3.56546C3.94525 2.56311 5.33252 2 6.77903 2H35.1402C35.4267 2.01473 35.6992 2.12561 35.912 2.31401L49.0018 15.1416C49.184 15.3292 49.2926 15.5739 49.3086 15.8324C49.3454 15.8872 49.3072 58.5897 49.3209 58.6552ZM36.2311 11.6207C36.2311 12.4712 36.5758 13.2869 37.1895 13.8883C37.8032 14.4897 38.6356 14.8276 39.5035 14.8276H45.5971L36.2311 5.64918V11.6207ZM47.1392 58.6552V16.9655H39.5035C38.057 16.9655 36.6697 16.4024 35.6469 15.4001C34.6241 14.3977 34.0494 13.0382 34.0494 11.6207V4.13793H6.77903C5.91112 4.13793 5.07876 4.4758 4.46506 5.07721C3.85136 5.67862 3.50658 6.49431 3.50658 7.34483V58.6552C3.50658 59.5057 3.85136 60.3214 4.46506 60.9228C5.07876 61.5242 5.91112 61.8621 6.77903 61.8621H43.8668C44.7347 61.8621 45.567 61.5242 46.1807 60.9228C46.7944 60.3214 47.1392 59.5057 47.1392 58.6552ZM39.5035 19.1034H11.1423C10.853 19.1034 10.5755 19.2161 10.371 19.4165C10.1664 19.617 10.0515 19.8889 10.0515 20.1724C10.0515 20.4559 10.1664 20.7278 10.371 20.9283C10.5755 21.1288 10.853 21.2414 11.1423 21.2414H39.5035C39.7928 21.2414 40.0703 21.1288 40.2748 20.9283C40.4794 20.7278 40.5943 20.4559 40.5943 20.1724C40.5943 19.8889 40.4794 19.617 40.2748 19.4165C40.0703 19.2161 39.7928 19.1034 39.5035 19.1034ZM39.5035 27.6552H11.1423C10.853 27.6552 10.5755 27.7678 10.371 27.9683C10.1664 28.1687 10.0515 28.4406 10.0515 28.7241C10.0515 29.0076 10.1664 29.2795 10.371 29.48C10.5755 29.6805 10.853 29.7931 11.1423 29.7931H39.5035C39.7928 29.7931 40.0703 29.6805 40.2748 29.48C40.4794 29.2795 40.5943 29.0076 40.5943 28.7241C40.5943 28.4406 40.4794 28.1687 40.2748 27.9683C40.0703 27.7678 39.7928 27.6552 39.5035 27.6552ZM38.0936 45.0713C38.2464 45.2208 38.3504 45.4113 38.3925 45.6188C38.4347 45.8263 38.4131 46.0413 38.3305 46.2368C38.2478 46.4322 38.1079 46.5992 37.9284 46.7167C37.7488 46.8341 37.5377 46.8967 37.3219 46.8966H30.777V55.4483C30.777 56.2988 30.4322 57.1145 29.8185 57.7159C29.2048 58.3173 28.3724 58.6552 27.5045 58.6552H23.1413C22.2734 58.6552 21.441 58.3173 20.8273 57.7159C20.2136 57.1145 19.8688 56.2988 19.8688 55.4483V46.8966H13.3239C13.1081 46.8967 12.897 46.8341 12.7175 46.7167C12.5379 46.5992 12.398 46.4322 12.3153 46.2368C12.2327 46.0413 12.2111 45.8263 12.2533 45.6188C12.2954 45.4113 12.3994 45.2208 12.5522 45.0713L23.0049 34.8253C23.6186 34.2239 24.4509 33.8861 25.3188 33.8861C26.1867 33.8861 27.019 34.2239 27.6327 34.8253L38.0936 45.0713ZM34.6848 44.7586L26.0947 36.3405C25.9933 36.2411 25.873 36.1623 25.7406 36.1085C25.6082 36.0547 25.4663 36.027 25.3229 36.027C25.1796 36.027 25.0376 36.0547 24.9052 36.1085C24.7728 36.1623 24.6525 36.2411 24.5512 36.3405L15.961 44.7586H20.9596C21.2489 44.7586 21.5264 44.8712 21.731 45.0717C21.9355 45.2722 22.0505 45.5441 22.0505 45.8276V55.4483C22.0505 55.7318 22.1654 56.0037 22.3699 56.2042C22.5745 56.4046 22.852 56.5172 23.1413 56.5172H27.5045C27.7938 56.5172 28.0713 56.4046 28.2759 56.2042C28.4804 56.0037 28.5954 55.7318 28.5954 55.4483V45.8276C28.5954 45.5441 28.7103 45.2722 28.9148 45.0717C29.1194 44.8712 29.3969 44.7586 29.6862 44.7586H34.6848Z" fill="black"/>
<path d="M10.0515 11.6207C10.0515 11.3372 10.1664 11.0653 10.371 10.8648C10.5755 10.6643 10.853 10.5517 11.1423 10.5517H30.777C31.0663 10.5517 31.3437 10.6643 31.5483 10.8648C31.7529 11.0653 31.8678 11.3372 31.8678 11.6207C31.8678 11.9042 31.7529 12.1761 31.5483 12.3766C31.3437 12.577 31.0663 12.6897 30.777 12.6897H11.1423C10.853 12.6897 10.5755 12.577 10.371 12.3766C10.1664 12.1761 10.0515 11.9042 10.0515 11.6207ZM49.3209 58.6552C49.3209 60.0727 48.7462 61.4322 47.7234 62.4345C46.7006 63.4369 45.3133 64 43.8668 64H6.77903C5.33252 64 3.94525 63.4369 2.92241 62.4345C1.89958 61.4322 1.32495 60.0727 1.32495 58.6552V7.34483C1.32495 5.92729 1.89958 4.56781 2.92241 3.56546C3.94525 2.56311 5.33252 2 6.77903 2H35.1402C35.4267 2.01473 35.6992 2.12561 35.912 2.31401L49.0018 15.1416C49.184 15.3292 49.2926 15.5739 49.3086 15.8324C49.3454 15.8872 49.3072 58.5897 49.3209 58.6552ZM36.2311 11.6207C36.2311 12.4712 36.5758 13.2869 37.1895 13.8883C37.8032 14.4897 38.6356 14.8276 39.5035 14.8276H45.5971L36.2311 5.64918V11.6207ZM47.1392 58.6552V16.9655H39.5035C38.057 16.9655 36.6697 16.4024 35.6469 15.4001C34.6241 14.3977 34.0494 13.0382 34.0494 11.6207V4.13793H6.77903C5.91112 4.13793 5.07876 4.4758 4.46506 5.07721C3.85136 5.67862 3.50658 6.49431 3.50658 7.34483V58.6552C3.50658 59.5057 3.85136 60.3214 4.46506 60.9228C5.07876 61.5242 5.91112 61.8621 6.77903 61.8621H43.8668C44.7347 61.8621 45.567 61.5242 46.1807 60.9228C46.7944 60.3214 47.1392 59.5057 47.1392 58.6552ZM39.5035 19.1034H11.1423C10.853 19.1034 10.5755 19.2161 10.371 19.4165C10.1664 19.617 10.0515 19.8889 10.0515 20.1724C10.0515 20.4559 10.1664 20.7278 10.371 20.9283C10.5755 21.1288 10.853 21.2414 11.1423 21.2414H39.5035C39.7928 21.2414 40.0703 21.1288 40.2748 20.9283C40.4794 20.7278 40.5943 20.4559 40.5943 20.1724C40.5943 19.8889 40.4794 19.617 40.2748 19.4165C40.0703 19.2161 39.7928 19.1034 39.5035 19.1034ZM39.5035 27.6552H11.1423C10.853 27.6552 10.5755 27.7678 10.371 27.9683C10.1664 28.1687 10.0515 28.4406 10.0515 28.7241C10.0515 29.0076 10.1664 29.2795 10.371 29.48C10.5755 29.6805 10.853 29.7931 11.1423 29.7931H39.5035C39.7928 29.7931 40.0703 29.6805 40.2748 29.48C40.4794 29.2795 40.5943 29.0076 40.5943 28.7241C40.5943 28.4406 40.4794 28.1687 40.2748 27.9683C40.0703 27.7678 39.7928 27.6552 39.5035 27.6552ZM38.0936 45.0713C38.2464 45.2208 38.3504 45.4113 38.3925 45.6188C38.4347 45.8263 38.4131 46.0413 38.3305 46.2368C38.2478 46.4322 38.1079 46.5992 37.9284 46.7167C37.7488 46.8341 37.5377 46.8967 37.3219 46.8966H30.777V55.4483C30.777 56.2988 30.4322 57.1145 29.8185 57.7159C29.2048 58.3173 28.3724 58.6552 27.5045 58.6552H23.1413C22.2734 58.6552 21.441 58.3173 20.8273 57.7159C20.2136 57.1145 19.8688 56.2988 19.8688 55.4483V46.8966H13.3239C13.1081 46.8967 12.897 46.8341 12.7175 46.7167C12.5379 46.5992 12.398 46.4322 12.3153 46.2368C12.2327 46.0413 12.2111 45.8263 12.2533 45.6188C12.2954 45.4113 12.3994 45.2208 12.5522 45.0713L23.0049 34.8253C23.6186 34.2239 24.4509 33.8861 25.3188 33.8861C26.1867 33.8861 27.019 34.2239 27.6327 34.8253L38.0936 45.0713ZM34.6848 44.7586L26.0947 36.3405C25.9933 36.2411 25.873 36.1623 25.7406 36.1085C25.6082 36.0547 25.4663 36.027 25.3229 36.027C25.1796 36.027 25.0376 36.0547 24.9052 36.1085C24.7728 36.1623 24.6525 36.2411 24.5512 36.3405L15.961 44.7586H20.9596C21.2489 44.7586 21.5264 44.8712 21.731 45.0717C21.9355 45.2722 22.0505 45.5441 22.0505 45.8276V55.4483C22.0505 55.7318 22.1654 56.0037 22.3699 56.2042C22.5745 56.4046 22.852 56.5172 23.1413 56.5172H27.5045C27.7938 56.5172 28.0713 56.4046 28.2759 56.2042C28.4804 56.0037 28.5954 55.7318 28.5954 55.4483V45.8276C28.5954 45.5441 28.7103 45.2722 28.9148 45.0717C29.1194 44.8712 29.3969 44.7586 29.6862 44.7586H34.6848Z" stroke="black" stroke-width="2.4" mask="url(#path-1-outside-1_440_774)"/>
</svg>
