<svg width="59" height="64" viewBox="0 0 59 64" fill="none" xmlns="http://www.w3.org/2000/svg">
<path d="M41.1155 4.45199L41.1128 4.452L8.69261 4.45199C7.65301 4.45199 6.65582 4.86568 5.92044 5.60234C5.18504 6.33902 4.77174 7.33836 4.77174 8.38056V55.6196C4.77174 56.6618 5.18504 57.6611 5.92044 58.3978C6.65582 59.1345 7.65301 59.5482 8.69261 59.5482H41.1128C42.1524 59.5482 43.1496 59.1345 43.885 58.3978C44.6204 57.6611 45.0337 56.6618 45.0337 55.6196V43.9572C45.0337 43.4333 45.2414 42.9306 45.6115 42.5598C45.9817 42.189 46.4839 41.9806 47.0077 41.9806C47.2671 41.9806 47.5238 42.0318 47.7634 42.1312C48.0029 42.2307 48.2205 42.3764 48.4036 42.5601C48.5868 42.7437 48.732 42.9617 48.8309 43.2015C48.9299 43.4413 48.9807 43.6983 48.9804 43.9577M41.1155 4.45199L45.4231 7.40351C45.2073 6.42104 44.6616 5.54244 43.8772 4.91432C43.0927 4.28619 42.117 3.94652 41.1128 3.95199H8.69261C7.52012 3.95199 6.39566 4.41857 5.56658 5.24909C4.73751 6.07961 4.27174 7.20603 4.27174 8.38056V55.6196C4.27174 56.7941 4.73751 57.9205 5.56658 58.7511C6.39566 59.5816 7.52012 60.0482 8.69261 60.0482H41.1128C42.2853 60.0482 43.4097 59.5816 44.2388 58.7511C45.0679 57.9205 45.5337 56.7941 45.5337 55.6196V43.9572C45.5337 43.5656 45.689 43.19 45.9654 42.9131C46.2419 42.6361 46.6168 42.4806 47.0077 42.4806C47.2013 42.4806 47.3929 42.5188 47.5716 42.593C47.7504 42.6672 47.9128 42.776 48.0496 42.9132C48.1864 43.0503 48.2948 43.2131 48.3687 43.3922C48.4427 43.5714 48.4806 43.7634 48.4804 43.9572V55.6196C48.4782 57.5763 47.7013 59.4523 46.3201 60.836C44.9389 62.2196 43.0661 62.9979 41.1128 63.0001H8.69261C6.73937 62.9975 4.86686 62.2191 3.48571 60.8355C2.10456 59.452 1.32751 57.5762 1.32495 55.6196V8.38056C1.32751 6.42392 2.10456 4.54816 3.48571 3.1646C4.86686 1.78104 6.73937 1.00264 8.69261 1.00007H41.1128L41.1106 0.500078C41.1109 0.500076 41.1113 0.500074 41.1117 0.500073M41.1155 4.45199C42.0051 4.44714 42.8696 4.74803 43.5646 5.30461C44.2585 5.86021 44.7417 6.6371 44.9338 7.50614M41.1155 4.45199L44.9338 7.50614M48.9804 43.9577L48.4825 43.9572H48.9804V43.9577ZM48.9804 43.9577V55.6196V55.6201C48.9781 57.709 48.1487 59.7119 46.6739 61.1892C45.1992 62.6666 43.1994 63.4977 41.1133 63.5001H41.1128H8.69261H8.69195C6.60605 63.4973 4.60654 62.6661 3.13185 61.1888C1.65719 59.7116 0.827683 57.709 0.824952 55.6202L0.824951 55.6196L0.824951 8.38056V8.37991C0.827683 6.29117 1.65719 4.28858 3.13185 2.81135C4.60654 1.3341 6.60605 0.502811 8.69195 0.500073L8.69261 0.500072L41.1117 0.500073M41.1117 0.500073C42.9003 0.492353 44.6374 1.09882 46.0336 2.21827C47.4283 3.33655 48.3987 4.89923 48.7836 6.64628C48.8458 6.89962 48.8572 7.1628 48.8172 7.42062C48.7769 7.6809 48.6849 7.9305 48.5467 8.15472C48.4086 8.37894 48.227 8.57325 48.0126 8.72619C47.7982 8.87913 47.5554 8.98758 47.2985 9.04512C47.0415 9.10266 46.7757 9.10812 46.5166 9.06117C46.2575 9.01422 46.0105 8.91582 45.79 8.7718C45.5695 8.62778 45.3801 8.44107 45.2329 8.2227C45.0868 8.00598 44.9851 7.76241 44.9338 7.50614M41.1117 0.500073L44.9338 7.50614" fill="black" stroke="black"/>
<path d="M54.0872 11.025L54.086 11.0243C52.955 10.3732 51.6124 10.1973 50.3522 10.5354C49.092 10.8734 48.0171 11.6977 47.3625 12.8275L47.3619 12.8285L30.2006 42.6051L30.1997 42.6067C29.5934 43.6674 29.2402 44.8543 29.1677 46.0744C29.1677 46.0744 29.1677 46.0744 29.1677 46.0745C29.1676 46.0745 29.1676 46.0746 29.1676 46.0746L28.9342 49.9735C28.9342 49.9736 28.9342 49.9737 28.9342 49.9739C28.895 50.6131 29.0344 51.2508 29.3368 51.8152C29.6393 52.3798 30.0929 52.8489 30.6469 53.1697C31.2008 53.4906 31.8332 53.6505 32.4729 53.6314C33.1126 53.6123 33.7343 53.415 34.2682 53.0617L37.5203 50.9097L37.5205 50.9096C38.5394 50.2349 39.388 49.3327 39.9997 48.2739L39.9999 48.2735L57.1637 18.4974C57.4877 17.9369 57.6979 17.3178 57.7823 16.6758C57.8668 16.0337 57.8238 15.3812 57.6557 14.7559L57.5563 14.3856H57.5396C57.3691 13.8985 57.1223 13.4408 56.8077 13.0299C56.4143 12.516 55.9227 12.0855 55.3615 11.7635C55.3611 11.7633 55.3607 11.7631 55.3603 11.7629L54.0872 11.025ZM53.7822 16.4601L53.7432 16.5277L52.5191 18.6514L49.5566 16.9378L50.7812 14.8131C50.7812 14.813 50.7813 14.8129 50.7813 14.8128C50.9108 14.5888 51.1235 14.4257 51.3726 14.3589C51.6217 14.2921 51.8872 14.327 52.1108 14.4563L52.1109 14.4563L53.3874 15.194L53.3883 15.1945C53.6131 15.3238 53.7777 15.5373 53.8457 15.7884L54.3283 15.6578C54.3788 15.845 54.3917 16.0404 54.3661 16.2326C54.3404 16.4249 54.2769 16.6101 54.1791 16.7774L53.7822 16.4601ZM36.5823 46.2967C36.5823 46.2968 36.5822 46.2968 36.5822 46.2969C36.2766 46.8249 35.8537 47.2751 35.3462 47.6126C35.3461 47.6127 35.3459 47.6128 35.3457 47.6129L32.9266 49.2113L33.1002 46.3151C33.1002 46.3149 33.1002 46.3147 33.1002 46.3145C33.1381 45.7048 33.3156 45.112 33.6189 44.5821C33.6191 44.5818 33.6192 44.5816 33.6194 44.5813L47.5832 20.3533L50.547 22.067L36.5823 46.2967Z" fill="black" stroke="black"/>
<path d="M24.9034 13.31H24.9111L24.9187 13.3098C25.4319 13.2941 25.9185 13.0788 26.2757 12.7099C26.6328 12.341 26.8324 11.8476 26.8324 11.3341C26.8324 10.8206 26.6328 10.3271 26.2757 9.95824C25.9185 9.58935 25.4319 9.37409 24.9187 9.35835L24.9111 9.35811H24.9034H11.6479C11.3863 9.35118 11.126 9.39638 10.882 9.49111C10.6355 9.58682 10.4107 9.73113 10.221 9.91544C10.0313 10.0997 9.88051 10.3203 9.77756 10.564C9.67462 10.8077 9.62158 11.0695 9.62158 11.3341C9.62158 11.5986 9.67462 11.8605 9.77756 12.1042C9.88051 12.3479 10.0313 12.5684 10.221 12.7527C10.4107 12.937 10.6355 13.0813 10.882 13.177C11.126 13.2718 11.3863 13.317 11.6479 13.31H24.9034Z" fill="black" stroke="black"/>
<path d="M40.567 20.1917V20.1912C40.567 19.9318 40.516 19.6748 40.4168 19.4351C40.3177 19.1953 40.1724 18.9774 39.9891 18.7938C39.8058 18.6102 39.5882 18.4645 39.3486 18.3651C39.1091 18.2657 38.8523 18.2146 38.5929 18.2146H11.6479C11.3863 18.2076 11.126 18.2528 10.882 18.3476C10.6355 18.4433 10.4107 18.5876 10.221 18.7719C10.0313 18.9562 9.88051 19.1767 9.77756 19.4204C9.67462 19.6641 9.62158 19.926 9.62158 20.1905C9.62158 20.4551 9.67462 20.7169 9.77756 20.9606C9.88051 21.2043 10.0313 21.4248 10.221 21.6092C10.4107 21.7935 10.6355 21.9378 10.882 22.0335C11.126 22.1282 11.3863 22.1734 11.6479 22.1665H38.5929C39.1164 22.1665 39.6184 21.9583 39.9884 21.5879C40.3585 21.2175 40.5665 20.7153 40.567 20.1917Z" fill="black" stroke="black"/>
<path d="M35.4526 29.0491C35.4528 28.7897 35.402 28.5327 35.3031 28.2929M35.4526 29.0491L34.9526 29.0486M35.4526 29.0491C35.4526 29.0489 35.4526 29.0488 35.4526 29.0486H34.9526M35.4526 29.0491C35.4525 29.5725 35.2449 30.0747 34.8751 30.4451C34.5052 30.8156 34.0034 31.0239 33.4799 31.0239H11.6479M35.3031 28.2929L34.9526 29.0486M35.3031 28.2929C35.2041 28.0531 35.0589 27.8351 34.8758 27.6515C34.6926 27.4678 34.475 27.3221 34.2355 27.2226C33.996 27.1232 33.7392 27.072 33.4799 27.072H11.6479C11.3863 27.065 11.126 27.1103 10.882 27.205C10.6355 27.3007 10.4107 27.445 10.221 27.6293C10.0313 27.8136 9.88051 28.0342 9.77756 28.2778C9.67462 28.5215 9.62158 28.7834 9.62158 29.0479C9.62158 29.3125 9.67462 29.5744 9.77756 29.818C9.88051 30.0617 10.0313 30.2823 10.221 30.4666C10.4107 30.6509 10.6355 30.7952 10.882 30.8909C11.126 30.9856 11.3863 31.0308 11.6479 31.0239M35.3031 28.2929L11.6408 30.5239M34.9526 29.0486C34.9526 29.4399 34.7974 29.8151 34.5212 30.0918C34.2451 30.3685 33.8705 30.5239 33.4799 30.5239H11.6408M11.6479 31.0239C11.6506 31.0238 11.6534 31.0238 11.6561 31.0237L11.6408 30.5239M11.6479 31.0239H11.6408V30.5239" fill="black" stroke="black"/>
<path d="M30.3548 37.9055V37.9051C30.3548 37.3811 30.147 36.8784 29.7769 36.5077C29.4067 36.1369 28.9045 35.9284 28.3807 35.9284H11.6479C11.3863 35.9215 11.126 35.9667 10.882 36.0614C10.6355 36.1571 10.4107 36.3014 10.221 36.4858C10.0313 36.6701 9.88051 36.8906 9.77756 37.1343C9.67462 37.378 9.62158 37.6398 9.62158 37.9044C9.62158 38.1689 9.67462 38.4308 9.77756 38.6745C9.88051 38.9182 10.0313 39.1387 10.221 39.323C10.4107 39.5073 10.6355 39.6516 10.882 39.7474C11.126 39.8421 11.3863 39.8873 11.6479 39.8803H28.3807C28.9042 39.8803 29.4061 39.6721 29.7762 39.3017C30.1463 38.9314 30.3543 38.4292 30.3548 37.9055Z" fill="black" stroke="black"/>
<path d="M18.0016 48.5061L17.7888 47.9727L17.7886 47.9723C17.5326 47.332 17.0909 46.783 16.5204 46.3962C15.9498 46.0095 15.2766 45.8027 14.5876 45.8027C13.8985 45.8027 13.2253 46.0095 12.6548 46.3962C12.0842 46.783 11.6426 47.332 11.3865 47.9723L11.3863 47.9729L9.8101 51.9292C9.81007 51.9293 9.81005 51.9293 9.81003 51.9294C9.81001 51.9294 9.80999 51.9295 9.80997 51.9295C9.71388 52.1704 9.6661 52.4278 9.66934 52.6871C9.67259 52.9465 9.72685 53.2028 9.82904 53.4413C9.93123 53.6797 10.0794 53.8957 10.265 54.0769C10.4506 54.258 10.6702 54.4008 10.911 54.497L10.9112 54.4971C11.1457 54.5907 11.3959 54.6389 11.6484 54.6393L11.6499 54.6393C12.0444 54.6386 12.4295 54.5199 12.756 54.2984C13.0825 54.077 13.3353 53.763 13.4822 53.3968L13.4829 53.3952L14.5889 50.6106L15.187 52.1077L15.1875 52.1089C15.3719 52.5671 15.6778 52.9663 16.0722 53.2634C16.4666 53.5604 16.9345 53.7441 17.4256 53.7944C17.9166 53.8447 18.412 53.7597 18.8584 53.5488C19.3047 53.3378 19.685 53.0088 19.9582 52.5974L19.9583 52.5972L20.4824 51.8074L21.789 53.7644C21.7891 53.7646 21.7892 53.7648 21.7894 53.765C21.9692 54.0351 22.2129 54.2567 22.499 54.41C22.7852 54.5634 23.1049 54.6436 23.4296 54.6434M18.0016 48.5061L23.4296 54.6434M18.0016 48.5061C18.2501 48.2457 18.539 48.0251 18.8582 47.8534C19.3605 47.5831 19.9222 47.4424 20.4925 47.444C21.0628 47.4456 21.6237 47.5895 22.1245 47.8626C22.6244 48.1352 23.0487 48.5279 23.3593 49.0053M18.0016 48.5061L25.4268 54.6434M23.4296 54.6434H23.4293V54.1443L23.4296 54.6434ZM25.4268 54.6434C25.6883 54.6504 25.9487 54.6052 26.1927 54.5104C26.4392 54.4147 26.664 54.2704 26.8537 54.0861C27.0434 53.9018 27.1942 53.6812 27.2971 53.4376C27.4001 53.1939 27.4531 52.932 27.4531 52.6675C27.4531 52.4029 27.4001 52.141 27.2971 51.8974C27.1942 51.6537 27.0434 51.4331 26.8537 51.2488C26.664 51.0645 26.4392 50.9202 26.1927 50.8245C25.9487 50.7298 25.6884 50.6846 25.4268 50.6915M25.4268 54.6434C25.424 54.6434 25.4213 54.6433 25.4186 54.6432L25.4339 54.1434V54.6434H25.4268ZM25.4268 50.6915H24.4843M25.4268 50.6915C25.4241 50.6916 25.4213 50.6917 25.4186 50.6917L25.4339 51.1915V50.6915H25.4268ZM24.4843 50.6915L23.3593 49.0053M24.4843 50.6915H24.2168V51.1915L24.6327 50.914L24.4843 50.6915ZM23.3593 49.0053C23.3598 49.0062 23.3604 49.0071 23.361 49.008L22.9416 49.2803L23.3576 49.0028L23.3593 49.0053Z" fill="black" stroke="black"/>
</svg>
