<svg width="57" height="58" viewBox="0 0 57 58" fill="none" xmlns="http://www.w3.org/2000/svg">
<path d="M48.3047 9.23145C53.6367 14.5635 56.9375 21.5459 56.9375 29.1631C56.9375 44.6514 43.9883 57.3467 28.373 57.3467C23.6758 57.3467 19.1055 56.0771 14.916 53.9189L0.0625 57.7275L3.99805 43.1279C1.58594 38.9385 0.189453 34.1143 0.189453 29.0361C0.189453 13.5479 12.8848 0.852539 28.373 0.852539C35.9902 0.852539 43.0996 3.89941 48.3047 9.23145ZM28.373 52.5225C41.3223 52.5225 52.1133 41.9854 52.1133 29.1631C52.1133 22.8154 49.4473 16.9756 45.0039 12.5322C40.5605 8.08887 34.7207 5.67676 28.5 5.67676C15.5508 5.67676 5.01367 16.2139 5.01367 29.0361C5.01367 33.4795 6.2832 37.7959 8.56836 41.6045L9.20312 42.4932L6.79102 51.126L15.6777 48.7139L16.4395 49.2217C20.1211 51.3799 24.1836 52.5225 28.373 52.5225ZM41.3223 35.0029C41.957 35.3838 42.4648 35.5107 42.5918 35.8916C42.8457 36.1455 42.8457 37.542 42.2109 39.1924C41.5762 40.8428 38.7832 42.3662 37.5137 42.4932C35.2285 42.874 33.4512 42.7471 29.0078 40.7158C21.8984 37.6689 17.3281 30.5596 16.9473 30.1787C16.5664 29.6709 14.1543 26.3701 14.1543 22.8154C14.1543 19.3877 15.9316 17.7373 16.5664 16.9756C17.2012 16.2139 17.9629 16.0869 18.4707 16.0869C18.8516 16.0869 19.3594 16.0869 19.7402 16.0869C20.248 16.0869 20.7559 15.96 21.3906 17.3564C21.8984 18.7529 23.4219 22.1807 23.5488 22.5615C23.6758 22.9424 23.8027 23.3232 23.5488 23.8311C22.2793 26.4971 20.7559 26.3701 21.5176 27.6396C24.3105 32.3369 26.9766 33.9873 31.166 36.0186C31.8008 36.3994 32.1816 36.2725 32.6895 35.8916C33.0703 35.3838 34.4668 33.7334 34.8477 33.0986C35.3555 32.3369 35.8633 32.4639 36.498 32.7178C37.1328 32.9717 40.5605 34.6221 41.3223 35.0029Z" fill="white"/>
<a href="https://wa.me/972524616973">
<rect fill="black" fill-opacity="0" x="0.0625" y="-4.875" width="56.875" height="74.75"/>
</a>
</svg>
