<svg width="94" height="94" viewBox="0 0 94 94" fill="none" xmlns="http://www.w3.org/2000/svg">
<circle cx="47" cy="47" r="47" fill="url(#paint0_linear_408_364)"/>
<path d="M66.4771 27.6541C71.4387 32.6156 74.5101 39.1128 74.5101 46.2007C74.5101 60.6127 62.4607 72.4258 47.9306 72.4258C43.5597 72.4258 39.307 71.2445 35.4087 69.2363L21.5873 72.7802L25.2494 59.1951C23.0049 55.2968 21.7055 50.8078 21.7055 46.0826C21.7055 31.6706 33.5186 19.8575 47.9306 19.8575C55.0184 19.8575 61.6338 22.6926 66.4771 27.6541ZM47.9306 67.9368C59.9799 67.9368 70.0211 58.1319 70.0211 46.2007C70.0211 40.2941 67.5403 34.8601 63.4057 30.7255C59.2712 26.5909 53.8371 24.3464 48.0487 24.3464C35.9993 24.3464 26.1944 34.1513 26.1944 46.0826C26.1944 50.2172 27.3758 54.2336 29.5021 57.7775L30.0928 58.6045L27.8483 66.6374L36.1175 64.3929L36.8262 64.8654C40.252 66.8736 44.0322 67.9368 47.9306 67.9368ZM59.9799 51.6347C60.5706 51.9891 61.0431 52.1073 61.1612 52.4616C61.3975 52.6979 61.3975 53.9974 60.8069 55.5331C60.2162 57.0688 57.6173 58.4863 56.436 58.6045C54.3096 58.9589 52.6558 58.8407 48.5212 56.9506C41.9059 54.1155 37.6532 47.5001 37.2988 47.1457C36.9444 46.6732 34.6999 43.6018 34.6999 40.2941C34.6999 37.1046 36.3537 35.5689 36.9444 34.8601C37.535 34.1513 38.2438 34.0332 38.7163 34.0332C39.0707 34.0332 39.5433 34.0332 39.8977 34.0332C40.3702 34.0332 40.8427 33.9151 41.4334 35.2145C41.9059 36.5139 43.3235 39.7035 43.4416 40.0579C43.5597 40.4123 43.6778 40.7667 43.4416 41.2392C42.2603 43.7199 40.8427 43.6018 41.5515 44.7831C44.1504 49.154 46.6311 50.6897 50.5294 52.5798C51.1201 52.9342 51.4745 52.816 51.947 52.4616C52.3014 51.9891 53.6009 50.4534 53.9553 49.8628C54.4278 49.154 54.9003 49.2721 55.491 49.5084C56.0816 49.7446 59.2712 51.2803 59.9799 51.6347Z" fill="white"/>
<defs>
<linearGradient id="paint0_linear_408_364" x1="47" y1="0" x2="47" y2="94" gradientUnits="userSpaceOnUse">
<stop stop-color="#28FF4E"/>
<stop offset="1" stop-color="#00AB22"/>
</linearGradient>
</defs>
</svg>
